<?xml version="1.0" encoding="UTF-8"?>
<svg xmlns="http://www.w3.org/2000/svg" xmlns:xlink="http://www.w3.org/1999/xlink" viewBox="0 0 128 128" width="128px" height="128px">
<g id="surface9017061">
<rect x="0" y="0" width="128" height="128" style="fill:rgb(40.000001%,40.000001%,40.000001%);fill-opacity:1;stroke:none;"/>
<path style=" stroke:none;fill-rule:nonzero;fill:rgb(18.039216%,80.000001%,44.313726%);fill-opacity:1;" d="M 14 8 C 10.695312 8 8 10.695312 8 14 L 8 106 C 8 113.71875 14.28125 120 22 120 L 110 120 C 117.71875 120 124 113.71875 124 106 L 124 56 C 124 51.585938 120.414062 48 116 48 L 100 48 L 100 14 C 100 10.695312 97.304688 8 94 8 Z M 14 12 L 94 12 C 95.101562 12 96 12.898438 96 14 L 96 106 C 96 109.992188 97.507812 113.5 100.015625 116 L 22 116 C 16.484375 116 12 111.515625 12 106 L 12 100 L 74 100 C 75.109375 100 76 99.109375 76 98 C 76 96.890625 75.109375 96 74 96 L 12 96 L 12 14 C 12 12.898438 12.898438 12 14 12 Z M 26 24 C 24.890625 24 24 24.890625 24 26 C 24 27.109375 24.890625 28 26 28 L 58 28 C 59.109375 28 60 27.109375 60 26 C 60 24.890625 59.109375 24 58 24 Z M 66 24 C 64.890625 24 64 24.890625 64 26 C 64 27.109375 64.890625 28 66 28 L 78 28 C 79.109375 28 80 27.109375 80 26 C 80 24.890625 79.109375 24 78 24 Z M 26 32 C 24.890625 32 24 32.890625 24 34 C 24 35.109375 24.890625 36 26 36 L 46 36 C 47.109375 36 48 35.109375 48 34 C 48 32.890625 47.109375 32 46 32 Z M 54 32 C 52.890625 32 52 32.890625 52 34 C 52 35.109375 52.890625 36 54 36 L 78 36 C 79.109375 36 80 35.109375 80 34 C 80 32.890625 79.109375 32 78 32 Z M 26 48 C 24.890625 48 24 48.890625 24 50 C 24 51.109375 24.890625 52 26 52 L 46 52 C 47.109375 52 48 51.109375 48 50 C 48 48.890625 47.109375 48 46 48 Z M 58 48 C 56.890625 48 56 48.890625 56 50 C 56 51.109375 56.890625 52 58 52 L 78 52 C 79.109375 52 80 51.109375 80 50 C 80 48.890625 79.109375 48 78 48 Z M 100 52 L 109.117188 52 C 108.421875 53.179688 108 54.539062 108 56 L 108 90 C 108 91.109375 108.890625 92 110 92 C 111.109375 92 112 91.109375 112 90 L 112 56 C 112 53.796875 113.796875 52 116 52 C 118.203125 52 120 53.796875 120 56 L 120 106 C 120 111.515625 115.515625 116 110 116 C 104.203125 116 100 111.796875 100 106 Z M 26 56 C 24.890625 56 24 56.890625 24 58 C 24 59.109375 24.890625 60 26 60 L 46 60 C 47.109375 60 48 59.109375 48 58 C 48 56.890625 47.109375 56 46 56 Z M 58 56 C 56.890625 56 56 56.890625 56 58 C 56 59.109375 56.890625 60 58 60 L 78 60 C 79.109375 60 80 59.109375 80 58 C 80 56.890625 79.109375 56 78 56 Z M 26 64 C 24.890625 64 24 64.890625 24 66 C 24 67.109375 24.890625 68 26 68 L 46 68 C 47.109375 68 48 67.109375 48 66 C 48 64.890625 47.109375 64 46 64 Z M 58 64 C 56.890625 64 56 64.890625 56 66 C 56 67.109375 56.890625 68 58 68 L 78 68 C 79.109375 68 80 67.109375 80 66 C 80 64.890625 79.109375 64 78 64 Z M 26 72 C 24.890625 72 24 72.890625 24 74 C 24 75.109375 24.890625 76 26 76 L 46 76 C 47.109375 76 48 75.109375 48 74 C 48 72.890625 47.109375 72 46 72 Z M 58 72 C 56.890625 72 56 72.890625 56 74 C 56 75.109375 56.890625 76 58 76 L 78 76 C 79.109375 76 80 75.109375 80 74 C 80 72.890625 79.109375 72 78 72 Z M 26 80 C 24.890625 80 24 80.890625 24 82 C 24 83.109375 24.890625 84 26 84 L 46 84 C 47.109375 84 48 83.109375 48 82 C 48 80.890625 47.109375 80 46 80 Z M 82 96 C 80.890625 96 80 96.890625 80 98 C 80 99.109375 80.890625 100 82 100 L 90 100 C 91.109375 100 92 99.109375 92 98 C 92 96.890625 91.109375 96 90 96 Z M 20 104 C 18.890625 104 18 104.890625 18 106 L 18 110 C 18 111.109375 18.890625 112 20 112 C 21.109375 112 22 111.109375 22 110 L 22 106 C 22 104.890625 21.109375 104 20 104 Z M 30 104 C 28.890625 104 28 104.890625 28 106 L 28 110 C 28 111.109375 28.890625 112 30 112 C 31.109375 112 32 111.109375 32 110 L 32 106 C 32 104.890625 31.109375 104 30 104 Z M 40 104 C 38.890625 104 38 104.890625 38 106 L 38 110 C 38 111.109375 38.890625 112 40 112 C 41.109375 112 42 111.109375 42 110 L 42 106 C 42 104.890625 41.109375 104 40 104 Z M 50 104 C 48.890625 104 48 104.890625 48 106 L 48 110 C 48 111.109375 48.890625 112 50 112 C 51.109375 112 52 111.109375 52 110 L 52 106 C 52 104.890625 51.109375 104 50 104 Z M 60 104 C 58.890625 104 58 104.890625 58 106 L 58 110 C 58 111.109375 58.890625 112 60 112 C 61.109375 112 62 111.109375 62 110 L 62 106 C 62 104.890625 61.109375 104 60 104 Z M 70 104 C 68.890625 104 68 104.890625 68 106 L 68 110 C 68 111.109375 68.890625 112 70 112 C 71.109375 112 72 111.109375 72 110 L 72 106 C 72 104.890625 71.109375 104 70 104 Z M 80 104 C 78.890625 104 78 104.890625 78 106 L 78 110 C 78 111.109375 78.890625 112 80 112 C 81.109375 112 82 111.109375 82 110 L 82 106 C 82 104.890625 81.109375 104 80 104 Z M 90 104 C 88.890625 104 88 104.890625 88 106 L 88 110 C 88 111.109375 88.890625 112 90 112 C 91.109375 112 92 111.109375 92 110 L 92 106 C 92 104.890625 91.109375 104 90 104 Z M 90 104 "/>
</g>
</svg>
